<mxfile host="app.diagrams.net" modified="2024-09-22T10:27:20.176Z" agent="Mozilla/5.0 (Windows NT 10.0; Win64; x64) AppleWebKit/537.36 (KHTML, like Gecko) Chrome/129.0.0.0 Safari/537.36" etag="u8ad6bGLAuvmsq-U1Zxp" version="23.1.5" type="device">
  <diagram name="Seite-1" id="XFAqXJrHXwESw2riKwKn">
    <mxGraphModel dx="583" dy="290" grid="1" gridSize="10" guides="1" tooltips="1" connect="1" arrows="1" fold="1" page="1" pageScale="1" pageWidth="1169" pageHeight="1654" math="0" shadow="0">
      <root>
        <mxCell id="0" />
        <mxCell id="1" parent="0" />
        <mxCell id="fBd8_eQ4kbWqu8nwlLp7-2" value="" style="rounded=0;whiteSpace=wrap;html=1;hachureGap=4;fillColor=none;" vertex="1" parent="1">
          <mxGeometry x="120" y="40" width="956" height="520" as="geometry" />
        </mxCell>
        <mxCell id="fBd8_eQ4kbWqu8nwlLp7-3" value="" style="rounded=1;whiteSpace=wrap;html=1;hachureGap=4;perimeterSpacing=0;glass=0;shadow=0;" vertex="1" parent="1">
          <mxGeometry x="199" y="150" width="801" height="40" as="geometry" />
        </mxCell>
        <mxCell id="fBd8_eQ4kbWqu8nwlLp7-5" value="X" style="ellipse;whiteSpace=wrap;html=1;aspect=fixed;hachureGap=4;fillColor=#f8cecc;strokeColor=#b85450;" vertex="1" parent="1">
          <mxGeometry x="960" y="210" width="40" height="40" as="geometry" />
        </mxCell>
        <mxCell id="fBd8_eQ4kbWqu8nwlLp7-11" value="" style="group;" vertex="1" connectable="0" parent="1">
          <mxGeometry x="200" y="326" width="90" height="30" as="geometry" />
        </mxCell>
        <mxCell id="fBd8_eQ4kbWqu8nwlLp7-6" value="" style="rounded=1;whiteSpace=wrap;html=1;hachureGap=4;" vertex="1" parent="fBd8_eQ4kbWqu8nwlLp7-11">
          <mxGeometry width="90" height="30" as="geometry" />
        </mxCell>
        <mxCell id="fBd8_eQ4kbWqu8nwlLp7-9" value="" style="ellipse;whiteSpace=wrap;html=1;aspect=fixed;hachureGap=4;fillColor=#dae8fc;strokeColor=#6c8ebf;" vertex="1" parent="fBd8_eQ4kbWqu8nwlLp7-11">
          <mxGeometry x="10" y="4.25" width="21.5" height="21.5" as="geometry" />
        </mxCell>
        <mxCell id="fBd8_eQ4kbWqu8nwlLp7-10" value="Word" style="text;html=1;align=center;verticalAlign=middle;whiteSpace=wrap;rounded=0;" vertex="1" parent="fBd8_eQ4kbWqu8nwlLp7-11">
          <mxGeometry x="30" width="60" height="30" as="geometry" />
        </mxCell>
        <mxCell id="fBd8_eQ4kbWqu8nwlLp7-101" value="0" style="text;html=1;align=center;verticalAlign=middle;whiteSpace=wrap;rounded=0;" vertex="1" parent="fBd8_eQ4kbWqu8nwlLp7-11">
          <mxGeometry x="10" width="20.75" height="30" as="geometry" />
        </mxCell>
        <mxCell id="fBd8_eQ4kbWqu8nwlLp7-12" value="" style="group;" vertex="1" connectable="0" parent="1">
          <mxGeometry x="310" y="327" width="90" height="30" as="geometry" />
        </mxCell>
        <mxCell id="fBd8_eQ4kbWqu8nwlLp7-13" value="" style="rounded=1;whiteSpace=wrap;html=1;hachureGap=4;" vertex="1" parent="fBd8_eQ4kbWqu8nwlLp7-12">
          <mxGeometry width="90" height="30" as="geometry" />
        </mxCell>
        <mxCell id="fBd8_eQ4kbWqu8nwlLp7-14" value="" style="ellipse;whiteSpace=wrap;html=1;aspect=fixed;hachureGap=4;" vertex="1" parent="fBd8_eQ4kbWqu8nwlLp7-12">
          <mxGeometry x="10" y="4.25" width="21.5" height="21.5" as="geometry" />
        </mxCell>
        <mxCell id="fBd8_eQ4kbWqu8nwlLp7-15" value="Word" style="text;html=1;align=center;verticalAlign=middle;whiteSpace=wrap;rounded=0;" vertex="1" parent="fBd8_eQ4kbWqu8nwlLp7-12">
          <mxGeometry x="30" width="60" height="30" as="geometry" />
        </mxCell>
        <mxCell id="fBd8_eQ4kbWqu8nwlLp7-102" value="1" style="text;html=1;align=center;verticalAlign=middle;whiteSpace=wrap;rounded=0;" vertex="1" parent="fBd8_eQ4kbWqu8nwlLp7-12">
          <mxGeometry x="10" width="20" height="30" as="geometry" />
        </mxCell>
        <mxCell id="fBd8_eQ4kbWqu8nwlLp7-16" value="" style="group;" vertex="1" connectable="0" parent="1">
          <mxGeometry x="420" y="327" width="90" height="30" as="geometry" />
        </mxCell>
        <mxCell id="fBd8_eQ4kbWqu8nwlLp7-17" value="" style="rounded=1;whiteSpace=wrap;html=1;hachureGap=4;" vertex="1" parent="fBd8_eQ4kbWqu8nwlLp7-16">
          <mxGeometry width="90" height="30" as="geometry" />
        </mxCell>
        <mxCell id="fBd8_eQ4kbWqu8nwlLp7-18" value="" style="ellipse;whiteSpace=wrap;html=1;aspect=fixed;hachureGap=4;" vertex="1" parent="fBd8_eQ4kbWqu8nwlLp7-16">
          <mxGeometry x="10" y="4.25" width="21.5" height="21.5" as="geometry" />
        </mxCell>
        <mxCell id="fBd8_eQ4kbWqu8nwlLp7-19" value="Word" style="text;html=1;align=center;verticalAlign=middle;whiteSpace=wrap;rounded=0;" vertex="1" parent="fBd8_eQ4kbWqu8nwlLp7-16">
          <mxGeometry x="30" width="60" height="30" as="geometry" />
        </mxCell>
        <mxCell id="fBd8_eQ4kbWqu8nwlLp7-103" value="2" style="text;html=1;align=center;verticalAlign=middle;whiteSpace=wrap;rounded=0;" vertex="1" parent="fBd8_eQ4kbWqu8nwlLp7-16">
          <mxGeometry x="10" width="20" height="30" as="geometry" />
        </mxCell>
        <mxCell id="fBd8_eQ4kbWqu8nwlLp7-20" value="" style="group;" vertex="1" connectable="0" parent="1">
          <mxGeometry x="530" y="327" width="90" height="30" as="geometry" />
        </mxCell>
        <mxCell id="fBd8_eQ4kbWqu8nwlLp7-21" value="" style="rounded=1;whiteSpace=wrap;html=1;hachureGap=4;" vertex="1" parent="fBd8_eQ4kbWqu8nwlLp7-20">
          <mxGeometry width="90" height="30" as="geometry" />
        </mxCell>
        <mxCell id="fBd8_eQ4kbWqu8nwlLp7-22" value="" style="ellipse;whiteSpace=wrap;html=1;aspect=fixed;hachureGap=4;" vertex="1" parent="fBd8_eQ4kbWqu8nwlLp7-20">
          <mxGeometry x="10" y="4.25" width="21.5" height="21.5" as="geometry" />
        </mxCell>
        <mxCell id="fBd8_eQ4kbWqu8nwlLp7-23" value="Word" style="text;html=1;align=center;verticalAlign=middle;whiteSpace=wrap;rounded=0;" vertex="1" parent="fBd8_eQ4kbWqu8nwlLp7-20">
          <mxGeometry x="30" width="60" height="30" as="geometry" />
        </mxCell>
        <mxCell id="fBd8_eQ4kbWqu8nwlLp7-104" value="3" style="text;html=1;align=center;verticalAlign=middle;whiteSpace=wrap;rounded=0;" vertex="1" parent="fBd8_eQ4kbWqu8nwlLp7-20">
          <mxGeometry x="10" width="20" height="30" as="geometry" />
        </mxCell>
        <mxCell id="fBd8_eQ4kbWqu8nwlLp7-24" value="" style="group;" vertex="1" connectable="0" parent="1">
          <mxGeometry x="640" y="327" width="90" height="30" as="geometry" />
        </mxCell>
        <mxCell id="fBd8_eQ4kbWqu8nwlLp7-25" value="" style="rounded=1;whiteSpace=wrap;html=1;hachureGap=4;" vertex="1" parent="fBd8_eQ4kbWqu8nwlLp7-24">
          <mxGeometry width="90" height="30" as="geometry" />
        </mxCell>
        <mxCell id="fBd8_eQ4kbWqu8nwlLp7-26" value="" style="ellipse;whiteSpace=wrap;html=1;aspect=fixed;hachureGap=4;" vertex="1" parent="fBd8_eQ4kbWqu8nwlLp7-24">
          <mxGeometry x="10" y="4.25" width="21.5" height="21.5" as="geometry" />
        </mxCell>
        <mxCell id="fBd8_eQ4kbWqu8nwlLp7-27" value="Word" style="text;html=1;align=center;verticalAlign=middle;whiteSpace=wrap;rounded=0;" vertex="1" parent="fBd8_eQ4kbWqu8nwlLp7-24">
          <mxGeometry x="30" width="60" height="30" as="geometry" />
        </mxCell>
        <mxCell id="fBd8_eQ4kbWqu8nwlLp7-105" value="4" style="text;html=1;align=center;verticalAlign=middle;whiteSpace=wrap;rounded=0;" vertex="1" parent="fBd8_eQ4kbWqu8nwlLp7-24">
          <mxGeometry x="10" width="20" height="30" as="geometry" />
        </mxCell>
        <mxCell id="fBd8_eQ4kbWqu8nwlLp7-99" value="&lt;font style=&quot;font-size: 18px;&quot;&gt;Next Word Prediction and Word Completion&amp;nbsp;&lt;/font&gt;" style="text;html=1;align=left;verticalAlign=middle;whiteSpace=wrap;rounded=0;" vertex="1" parent="1">
          <mxGeometry x="199" y="280" width="371" height="30" as="geometry" />
        </mxCell>
        <mxCell id="fBd8_eQ4kbWqu8nwlLp7-100" value="&lt;font size=&quot;1&quot; style=&quot;&quot;&gt;&lt;span style=&quot;font-size: 26px;&quot;&gt;Speech support&amp;nbsp;&lt;/span&gt;&lt;/font&gt;" style="text;html=1;align=left;verticalAlign=middle;whiteSpace=wrap;rounded=0;" vertex="1" parent="1">
          <mxGeometry x="199" y="80" width="250" height="30" as="geometry" />
        </mxCell>
        <mxCell id="fBd8_eQ4kbWqu8nwlLp7-106" value="" style="group;" vertex="1" connectable="0" parent="1">
          <mxGeometry x="200" y="370" width="90" height="30" as="geometry" />
        </mxCell>
        <mxCell id="fBd8_eQ4kbWqu8nwlLp7-107" value="" style="rounded=1;whiteSpace=wrap;html=1;hachureGap=4;" vertex="1" parent="fBd8_eQ4kbWqu8nwlLp7-106">
          <mxGeometry width="90" height="30" as="geometry" />
        </mxCell>
        <mxCell id="fBd8_eQ4kbWqu8nwlLp7-108" value="" style="ellipse;whiteSpace=wrap;html=1;aspect=fixed;hachureGap=4;" vertex="1" parent="fBd8_eQ4kbWqu8nwlLp7-106">
          <mxGeometry x="10" y="4.25" width="21.5" height="21.5" as="geometry" />
        </mxCell>
        <mxCell id="fBd8_eQ4kbWqu8nwlLp7-109" value="Word" style="text;html=1;align=center;verticalAlign=middle;whiteSpace=wrap;rounded=0;" vertex="1" parent="fBd8_eQ4kbWqu8nwlLp7-106">
          <mxGeometry x="30" width="60" height="30" as="geometry" />
        </mxCell>
        <mxCell id="fBd8_eQ4kbWqu8nwlLp7-110" value="5" style="text;html=1;align=center;verticalAlign=middle;whiteSpace=wrap;rounded=0;" vertex="1" parent="fBd8_eQ4kbWqu8nwlLp7-106">
          <mxGeometry x="10.75" width="20" height="30" as="geometry" />
        </mxCell>
        <mxCell id="fBd8_eQ4kbWqu8nwlLp7-111" value="" style="group;" vertex="1" connectable="0" parent="1">
          <mxGeometry x="310" y="371" width="90" height="30" as="geometry" />
        </mxCell>
        <mxCell id="fBd8_eQ4kbWqu8nwlLp7-112" value="" style="rounded=1;whiteSpace=wrap;html=1;hachureGap=4;" vertex="1" parent="fBd8_eQ4kbWqu8nwlLp7-111">
          <mxGeometry width="90" height="30" as="geometry" />
        </mxCell>
        <mxCell id="fBd8_eQ4kbWqu8nwlLp7-113" value="" style="ellipse;whiteSpace=wrap;html=1;aspect=fixed;hachureGap=4;" vertex="1" parent="fBd8_eQ4kbWqu8nwlLp7-111">
          <mxGeometry x="10" y="4.25" width="21.5" height="21.5" as="geometry" />
        </mxCell>
        <mxCell id="fBd8_eQ4kbWqu8nwlLp7-114" value="Word" style="text;html=1;align=center;verticalAlign=middle;whiteSpace=wrap;rounded=0;" vertex="1" parent="fBd8_eQ4kbWqu8nwlLp7-111">
          <mxGeometry x="30" width="60" height="30" as="geometry" />
        </mxCell>
        <mxCell id="fBd8_eQ4kbWqu8nwlLp7-115" value="6" style="text;html=1;align=center;verticalAlign=middle;whiteSpace=wrap;rounded=0;" vertex="1" parent="fBd8_eQ4kbWqu8nwlLp7-111">
          <mxGeometry x="10" width="20" height="30" as="geometry" />
        </mxCell>
        <mxCell id="fBd8_eQ4kbWqu8nwlLp7-116" value="" style="group;" vertex="1" connectable="0" parent="1">
          <mxGeometry x="420" y="371" width="90" height="30" as="geometry" />
        </mxCell>
        <mxCell id="fBd8_eQ4kbWqu8nwlLp7-117" value="" style="rounded=1;whiteSpace=wrap;html=1;hachureGap=4;" vertex="1" parent="fBd8_eQ4kbWqu8nwlLp7-116">
          <mxGeometry width="90" height="30" as="geometry" />
        </mxCell>
        <mxCell id="fBd8_eQ4kbWqu8nwlLp7-118" value="" style="ellipse;whiteSpace=wrap;html=1;aspect=fixed;hachureGap=4;" vertex="1" parent="fBd8_eQ4kbWqu8nwlLp7-116">
          <mxGeometry x="10" y="4.25" width="21.5" height="21.5" as="geometry" />
        </mxCell>
        <mxCell id="fBd8_eQ4kbWqu8nwlLp7-119" value="Word" style="text;html=1;align=center;verticalAlign=middle;whiteSpace=wrap;rounded=0;" vertex="1" parent="fBd8_eQ4kbWqu8nwlLp7-116">
          <mxGeometry x="30" width="60" height="30" as="geometry" />
        </mxCell>
        <mxCell id="fBd8_eQ4kbWqu8nwlLp7-120" value="7" style="text;html=1;align=center;verticalAlign=middle;whiteSpace=wrap;rounded=0;" vertex="1" parent="fBd8_eQ4kbWqu8nwlLp7-116">
          <mxGeometry x="10" width="20" height="30" as="geometry" />
        </mxCell>
        <mxCell id="fBd8_eQ4kbWqu8nwlLp7-121" value="" style="group;" vertex="1" connectable="0" parent="1">
          <mxGeometry x="530" y="371" width="90" height="30" as="geometry" />
        </mxCell>
        <mxCell id="fBd8_eQ4kbWqu8nwlLp7-122" value="" style="rounded=1;whiteSpace=wrap;html=1;hachureGap=4;" vertex="1" parent="fBd8_eQ4kbWqu8nwlLp7-121">
          <mxGeometry width="90" height="30" as="geometry" />
        </mxCell>
        <mxCell id="fBd8_eQ4kbWqu8nwlLp7-123" value="" style="ellipse;whiteSpace=wrap;html=1;aspect=fixed;hachureGap=4;" vertex="1" parent="fBd8_eQ4kbWqu8nwlLp7-121">
          <mxGeometry x="10" y="4.25" width="21.5" height="21.5" as="geometry" />
        </mxCell>
        <mxCell id="fBd8_eQ4kbWqu8nwlLp7-124" value="Word" style="text;html=1;align=center;verticalAlign=middle;whiteSpace=wrap;rounded=0;" vertex="1" parent="fBd8_eQ4kbWqu8nwlLp7-121">
          <mxGeometry x="30" width="60" height="30" as="geometry" />
        </mxCell>
        <mxCell id="fBd8_eQ4kbWqu8nwlLp7-125" value="8" style="text;html=1;align=center;verticalAlign=middle;whiteSpace=wrap;rounded=0;" vertex="1" parent="fBd8_eQ4kbWqu8nwlLp7-121">
          <mxGeometry x="10" width="20" height="30" as="geometry" />
        </mxCell>
        <mxCell id="fBd8_eQ4kbWqu8nwlLp7-126" value="" style="group;" vertex="1" connectable="0" parent="1">
          <mxGeometry x="640" y="371" width="90" height="30" as="geometry" />
        </mxCell>
        <mxCell id="fBd8_eQ4kbWqu8nwlLp7-127" value="" style="rounded=1;whiteSpace=wrap;html=1;hachureGap=4;" vertex="1" parent="fBd8_eQ4kbWqu8nwlLp7-126">
          <mxGeometry width="90" height="30" as="geometry" />
        </mxCell>
        <mxCell id="fBd8_eQ4kbWqu8nwlLp7-128" value="" style="ellipse;whiteSpace=wrap;html=1;aspect=fixed;hachureGap=4;" vertex="1" parent="fBd8_eQ4kbWqu8nwlLp7-126">
          <mxGeometry x="10" y="4.25" width="21.5" height="21.5" as="geometry" />
        </mxCell>
        <mxCell id="fBd8_eQ4kbWqu8nwlLp7-129" value="Word" style="text;html=1;align=center;verticalAlign=middle;whiteSpace=wrap;rounded=0;" vertex="1" parent="fBd8_eQ4kbWqu8nwlLp7-126">
          <mxGeometry x="30" width="60" height="30" as="geometry" />
        </mxCell>
        <mxCell id="fBd8_eQ4kbWqu8nwlLp7-130" value="9" style="text;html=1;align=center;verticalAlign=middle;whiteSpace=wrap;rounded=0;" vertex="1" parent="fBd8_eQ4kbWqu8nwlLp7-126">
          <mxGeometry x="10" width="20" height="30" as="geometry" />
        </mxCell>
        <mxCell id="fBd8_eQ4kbWqu8nwlLp7-4" value="O" style="ellipse;whiteSpace=wrap;html=1;aspect=fixed;hachureGap=4;fillColor=#d5e8d4;strokeColor=#82b366;" vertex="1" parent="1">
          <mxGeometry x="900" y="210" width="40" height="40" as="geometry" />
        </mxCell>
        <mxCell id="fBd8_eQ4kbWqu8nwlLp7-232" value="&lt;font style=&quot;font-size: 18px;&quot;&gt;Text ...&lt;/font&gt;" style="text;html=1;align=left;verticalAlign=middle;whiteSpace=wrap;rounded=0;" vertex="1" parent="1">
          <mxGeometry x="214" y="155" width="220" height="30" as="geometry" />
        </mxCell>
        <mxCell id="fBd8_eQ4kbWqu8nwlLp7-237" value="" style="rounded=0;whiteSpace=wrap;html=1;hachureGap=4;fillColor=none;" vertex="1" parent="1">
          <mxGeometry x="1120" y="40" width="280" height="600" as="geometry" />
        </mxCell>
        <mxCell id="fBd8_eQ4kbWqu8nwlLp7-238" value="" style="rounded=1;whiteSpace=wrap;html=1;hachureGap=4;perimeterSpacing=0;glass=0;shadow=0;" vertex="1" parent="1">
          <mxGeometry x="1159" y="175" width="201" height="50" as="geometry" />
        </mxCell>
        <mxCell id="fBd8_eQ4kbWqu8nwlLp7-239" value="X" style="ellipse;whiteSpace=wrap;html=1;aspect=fixed;hachureGap=4;fillColor=#f8cecc;strokeColor=#b85450;" vertex="1" parent="1">
          <mxGeometry x="1320" y="245" width="40" height="40" as="geometry" />
        </mxCell>
        <mxCell id="fBd8_eQ4kbWqu8nwlLp7-240" value="" style="group;" vertex="1" connectable="0" parent="1">
          <mxGeometry x="1160" y="375" width="90" height="30" as="geometry" />
        </mxCell>
        <mxCell id="fBd8_eQ4kbWqu8nwlLp7-241" value="" style="rounded=1;whiteSpace=wrap;html=1;hachureGap=4;" vertex="1" parent="fBd8_eQ4kbWqu8nwlLp7-240">
          <mxGeometry width="90" height="30" as="geometry" />
        </mxCell>
        <mxCell id="fBd8_eQ4kbWqu8nwlLp7-242" value="" style="ellipse;whiteSpace=wrap;html=1;aspect=fixed;hachureGap=4;fillColor=#dae8fc;strokeColor=#6c8ebf;" vertex="1" parent="fBd8_eQ4kbWqu8nwlLp7-240">
          <mxGeometry x="10" y="4.25" width="21.5" height="21.5" as="geometry" />
        </mxCell>
        <mxCell id="fBd8_eQ4kbWqu8nwlLp7-243" value="Word" style="text;html=1;align=center;verticalAlign=middle;whiteSpace=wrap;rounded=0;" vertex="1" parent="fBd8_eQ4kbWqu8nwlLp7-240">
          <mxGeometry x="30" width="60" height="30" as="geometry" />
        </mxCell>
        <mxCell id="fBd8_eQ4kbWqu8nwlLp7-244" value="0" style="text;html=1;align=center;verticalAlign=middle;whiteSpace=wrap;rounded=0;" vertex="1" parent="fBd8_eQ4kbWqu8nwlLp7-240">
          <mxGeometry x="10" width="20.75" height="30" as="geometry" />
        </mxCell>
        <mxCell id="fBd8_eQ4kbWqu8nwlLp7-245" value="" style="group;" vertex="1" connectable="0" parent="1">
          <mxGeometry x="1270" y="376" width="90" height="30" as="geometry" />
        </mxCell>
        <mxCell id="fBd8_eQ4kbWqu8nwlLp7-246" value="" style="rounded=1;whiteSpace=wrap;html=1;hachureGap=4;" vertex="1" parent="fBd8_eQ4kbWqu8nwlLp7-245">
          <mxGeometry width="90" height="30" as="geometry" />
        </mxCell>
        <mxCell id="fBd8_eQ4kbWqu8nwlLp7-247" value="" style="ellipse;whiteSpace=wrap;html=1;aspect=fixed;hachureGap=4;" vertex="1" parent="fBd8_eQ4kbWqu8nwlLp7-245">
          <mxGeometry x="10" y="4.25" width="21.5" height="21.5" as="geometry" />
        </mxCell>
        <mxCell id="fBd8_eQ4kbWqu8nwlLp7-248" value="Word" style="text;html=1;align=center;verticalAlign=middle;whiteSpace=wrap;rounded=0;" vertex="1" parent="fBd8_eQ4kbWqu8nwlLp7-245">
          <mxGeometry x="30" width="60" height="30" as="geometry" />
        </mxCell>
        <mxCell id="fBd8_eQ4kbWqu8nwlLp7-249" value="1" style="text;html=1;align=center;verticalAlign=middle;whiteSpace=wrap;rounded=0;" vertex="1" parent="fBd8_eQ4kbWqu8nwlLp7-245">
          <mxGeometry x="10" width="20" height="30" as="geometry" />
        </mxCell>
        <mxCell id="fBd8_eQ4kbWqu8nwlLp7-250" value="" style="group;" vertex="1" connectable="0" parent="1">
          <mxGeometry x="1160" y="415" width="90" height="30" as="geometry" />
        </mxCell>
        <mxCell id="fBd8_eQ4kbWqu8nwlLp7-251" value="" style="rounded=1;whiteSpace=wrap;html=1;hachureGap=4;" vertex="1" parent="fBd8_eQ4kbWqu8nwlLp7-250">
          <mxGeometry width="90" height="30" as="geometry" />
        </mxCell>
        <mxCell id="fBd8_eQ4kbWqu8nwlLp7-252" value="" style="ellipse;whiteSpace=wrap;html=1;aspect=fixed;hachureGap=4;" vertex="1" parent="fBd8_eQ4kbWqu8nwlLp7-250">
          <mxGeometry x="10" y="4.25" width="21.5" height="21.5" as="geometry" />
        </mxCell>
        <mxCell id="fBd8_eQ4kbWqu8nwlLp7-253" value="Word" style="text;html=1;align=center;verticalAlign=middle;whiteSpace=wrap;rounded=0;" vertex="1" parent="fBd8_eQ4kbWqu8nwlLp7-250">
          <mxGeometry x="30" width="60" height="30" as="geometry" />
        </mxCell>
        <mxCell id="fBd8_eQ4kbWqu8nwlLp7-254" value="2" style="text;html=1;align=center;verticalAlign=middle;whiteSpace=wrap;rounded=0;" vertex="1" parent="fBd8_eQ4kbWqu8nwlLp7-250">
          <mxGeometry x="10" width="20" height="30" as="geometry" />
        </mxCell>
        <mxCell id="fBd8_eQ4kbWqu8nwlLp7-255" value="" style="group;" vertex="1" connectable="0" parent="1">
          <mxGeometry x="1270" y="415" width="90" height="30" as="geometry" />
        </mxCell>
        <mxCell id="fBd8_eQ4kbWqu8nwlLp7-256" value="" style="rounded=1;whiteSpace=wrap;html=1;hachureGap=4;" vertex="1" parent="fBd8_eQ4kbWqu8nwlLp7-255">
          <mxGeometry width="90" height="30" as="geometry" />
        </mxCell>
        <mxCell id="fBd8_eQ4kbWqu8nwlLp7-257" value="" style="ellipse;whiteSpace=wrap;html=1;aspect=fixed;hachureGap=4;" vertex="1" parent="fBd8_eQ4kbWqu8nwlLp7-255">
          <mxGeometry x="10" y="4.25" width="21.5" height="21.5" as="geometry" />
        </mxCell>
        <mxCell id="fBd8_eQ4kbWqu8nwlLp7-258" value="Word" style="text;html=1;align=center;verticalAlign=middle;whiteSpace=wrap;rounded=0;" vertex="1" parent="fBd8_eQ4kbWqu8nwlLp7-255">
          <mxGeometry x="30" width="60" height="30" as="geometry" />
        </mxCell>
        <mxCell id="fBd8_eQ4kbWqu8nwlLp7-259" value="3" style="text;html=1;align=center;verticalAlign=middle;whiteSpace=wrap;rounded=0;" vertex="1" parent="fBd8_eQ4kbWqu8nwlLp7-255">
          <mxGeometry x="10" width="20" height="30" as="geometry" />
        </mxCell>
        <mxCell id="fBd8_eQ4kbWqu8nwlLp7-260" value="" style="group;" vertex="1" connectable="0" parent="1">
          <mxGeometry x="1270" y="455" width="90" height="30" as="geometry" />
        </mxCell>
        <mxCell id="fBd8_eQ4kbWqu8nwlLp7-261" value="" style="rounded=1;whiteSpace=wrap;html=1;hachureGap=4;" vertex="1" parent="fBd8_eQ4kbWqu8nwlLp7-260">
          <mxGeometry width="90" height="30" as="geometry" />
        </mxCell>
        <mxCell id="fBd8_eQ4kbWqu8nwlLp7-262" value="" style="ellipse;whiteSpace=wrap;html=1;aspect=fixed;hachureGap=4;" vertex="1" parent="fBd8_eQ4kbWqu8nwlLp7-260">
          <mxGeometry x="10" y="4.25" width="21.5" height="21.5" as="geometry" />
        </mxCell>
        <mxCell id="fBd8_eQ4kbWqu8nwlLp7-263" value="Word" style="text;html=1;align=center;verticalAlign=middle;whiteSpace=wrap;rounded=0;" vertex="1" parent="fBd8_eQ4kbWqu8nwlLp7-260">
          <mxGeometry x="30" width="60" height="30" as="geometry" />
        </mxCell>
        <mxCell id="fBd8_eQ4kbWqu8nwlLp7-264" value="4" style="text;html=1;align=center;verticalAlign=middle;whiteSpace=wrap;rounded=0;" vertex="1" parent="fBd8_eQ4kbWqu8nwlLp7-260">
          <mxGeometry x="10" width="20" height="30" as="geometry" />
        </mxCell>
        <mxCell id="fBd8_eQ4kbWqu8nwlLp7-267" value="&lt;font size=&quot;1&quot; style=&quot;&quot;&gt;&lt;span style=&quot;font-size: 26px;&quot;&gt;Speech support&amp;nbsp;&lt;/span&gt;&lt;/font&gt;" style="text;html=1;align=left;verticalAlign=middle;whiteSpace=wrap;rounded=0;" vertex="1" parent="1">
          <mxGeometry x="1159" y="105" width="250" height="30" as="geometry" />
        </mxCell>
        <mxCell id="fBd8_eQ4kbWqu8nwlLp7-268" value="" style="group;" vertex="1" connectable="0" parent="1">
          <mxGeometry x="1160" y="455" width="90" height="30" as="geometry" />
        </mxCell>
        <mxCell id="fBd8_eQ4kbWqu8nwlLp7-269" value="" style="rounded=1;whiteSpace=wrap;html=1;hachureGap=4;" vertex="1" parent="fBd8_eQ4kbWqu8nwlLp7-268">
          <mxGeometry width="90" height="30" as="geometry" />
        </mxCell>
        <mxCell id="fBd8_eQ4kbWqu8nwlLp7-270" value="" style="ellipse;whiteSpace=wrap;html=1;aspect=fixed;hachureGap=4;" vertex="1" parent="fBd8_eQ4kbWqu8nwlLp7-268">
          <mxGeometry x="10" y="4.25" width="21.5" height="21.5" as="geometry" />
        </mxCell>
        <mxCell id="fBd8_eQ4kbWqu8nwlLp7-271" value="Word" style="text;html=1;align=center;verticalAlign=middle;whiteSpace=wrap;rounded=0;" vertex="1" parent="fBd8_eQ4kbWqu8nwlLp7-268">
          <mxGeometry x="30" width="60" height="30" as="geometry" />
        </mxCell>
        <mxCell id="fBd8_eQ4kbWqu8nwlLp7-272" value="5" style="text;html=1;align=center;verticalAlign=middle;whiteSpace=wrap;rounded=0;" vertex="1" parent="fBd8_eQ4kbWqu8nwlLp7-268">
          <mxGeometry x="10.75" width="20" height="30" as="geometry" />
        </mxCell>
        <mxCell id="fBd8_eQ4kbWqu8nwlLp7-273" value="" style="group;" vertex="1" connectable="0" parent="1">
          <mxGeometry x="1160" y="495" width="90" height="30" as="geometry" />
        </mxCell>
        <mxCell id="fBd8_eQ4kbWqu8nwlLp7-274" value="" style="rounded=1;whiteSpace=wrap;html=1;hachureGap=4;" vertex="1" parent="fBd8_eQ4kbWqu8nwlLp7-273">
          <mxGeometry width="90" height="30" as="geometry" />
        </mxCell>
        <mxCell id="fBd8_eQ4kbWqu8nwlLp7-275" value="" style="ellipse;whiteSpace=wrap;html=1;aspect=fixed;hachureGap=4;" vertex="1" parent="fBd8_eQ4kbWqu8nwlLp7-273">
          <mxGeometry x="10" y="4.25" width="21.5" height="21.5" as="geometry" />
        </mxCell>
        <mxCell id="fBd8_eQ4kbWqu8nwlLp7-276" value="Word" style="text;html=1;align=center;verticalAlign=middle;whiteSpace=wrap;rounded=0;" vertex="1" parent="fBd8_eQ4kbWqu8nwlLp7-273">
          <mxGeometry x="30" width="60" height="30" as="geometry" />
        </mxCell>
        <mxCell id="fBd8_eQ4kbWqu8nwlLp7-277" value="6" style="text;html=1;align=center;verticalAlign=middle;whiteSpace=wrap;rounded=0;" vertex="1" parent="fBd8_eQ4kbWqu8nwlLp7-273">
          <mxGeometry x="10" width="20" height="30" as="geometry" />
        </mxCell>
        <mxCell id="fBd8_eQ4kbWqu8nwlLp7-278" value="" style="group;" vertex="1" connectable="0" parent="1">
          <mxGeometry x="1270" y="495" width="90" height="30" as="geometry" />
        </mxCell>
        <mxCell id="fBd8_eQ4kbWqu8nwlLp7-279" value="" style="rounded=1;whiteSpace=wrap;html=1;hachureGap=4;" vertex="1" parent="fBd8_eQ4kbWqu8nwlLp7-278">
          <mxGeometry width="90" height="30" as="geometry" />
        </mxCell>
        <mxCell id="fBd8_eQ4kbWqu8nwlLp7-280" value="" style="ellipse;whiteSpace=wrap;html=1;aspect=fixed;hachureGap=4;" vertex="1" parent="fBd8_eQ4kbWqu8nwlLp7-278">
          <mxGeometry x="10" y="4.25" width="21.5" height="21.5" as="geometry" />
        </mxCell>
        <mxCell id="fBd8_eQ4kbWqu8nwlLp7-281" value="Word" style="text;html=1;align=center;verticalAlign=middle;whiteSpace=wrap;rounded=0;" vertex="1" parent="fBd8_eQ4kbWqu8nwlLp7-278">
          <mxGeometry x="30" width="60" height="30" as="geometry" />
        </mxCell>
        <mxCell id="fBd8_eQ4kbWqu8nwlLp7-282" value="7" style="text;html=1;align=center;verticalAlign=middle;whiteSpace=wrap;rounded=0;" vertex="1" parent="fBd8_eQ4kbWqu8nwlLp7-278">
          <mxGeometry x="10" width="20" height="30" as="geometry" />
        </mxCell>
        <mxCell id="fBd8_eQ4kbWqu8nwlLp7-283" value="" style="group;" vertex="1" connectable="0" parent="1">
          <mxGeometry x="1160" y="535" width="90" height="30" as="geometry" />
        </mxCell>
        <mxCell id="fBd8_eQ4kbWqu8nwlLp7-284" value="" style="rounded=1;whiteSpace=wrap;html=1;hachureGap=4;" vertex="1" parent="fBd8_eQ4kbWqu8nwlLp7-283">
          <mxGeometry width="90" height="30" as="geometry" />
        </mxCell>
        <mxCell id="fBd8_eQ4kbWqu8nwlLp7-285" value="" style="ellipse;whiteSpace=wrap;html=1;aspect=fixed;hachureGap=4;" vertex="1" parent="fBd8_eQ4kbWqu8nwlLp7-283">
          <mxGeometry x="10" y="4.25" width="21.5" height="21.5" as="geometry" />
        </mxCell>
        <mxCell id="fBd8_eQ4kbWqu8nwlLp7-286" value="Word" style="text;html=1;align=center;verticalAlign=middle;whiteSpace=wrap;rounded=0;" vertex="1" parent="fBd8_eQ4kbWqu8nwlLp7-283">
          <mxGeometry x="30" width="60" height="30" as="geometry" />
        </mxCell>
        <mxCell id="fBd8_eQ4kbWqu8nwlLp7-287" value="8" style="text;html=1;align=center;verticalAlign=middle;whiteSpace=wrap;rounded=0;" vertex="1" parent="fBd8_eQ4kbWqu8nwlLp7-283">
          <mxGeometry x="10" width="20" height="30" as="geometry" />
        </mxCell>
        <mxCell id="fBd8_eQ4kbWqu8nwlLp7-288" value="" style="group;" vertex="1" connectable="0" parent="1">
          <mxGeometry x="1270" y="535" width="90" height="30" as="geometry" />
        </mxCell>
        <mxCell id="fBd8_eQ4kbWqu8nwlLp7-289" value="" style="rounded=1;whiteSpace=wrap;html=1;hachureGap=4;" vertex="1" parent="fBd8_eQ4kbWqu8nwlLp7-288">
          <mxGeometry width="90" height="30" as="geometry" />
        </mxCell>
        <mxCell id="fBd8_eQ4kbWqu8nwlLp7-290" value="" style="ellipse;whiteSpace=wrap;html=1;aspect=fixed;hachureGap=4;" vertex="1" parent="fBd8_eQ4kbWqu8nwlLp7-288">
          <mxGeometry x="10" y="4.25" width="21.5" height="21.5" as="geometry" />
        </mxCell>
        <mxCell id="fBd8_eQ4kbWqu8nwlLp7-291" value="Word" style="text;html=1;align=center;verticalAlign=middle;whiteSpace=wrap;rounded=0;" vertex="1" parent="fBd8_eQ4kbWqu8nwlLp7-288">
          <mxGeometry x="30" width="60" height="30" as="geometry" />
        </mxCell>
        <mxCell id="fBd8_eQ4kbWqu8nwlLp7-292" value="9" style="text;html=1;align=center;verticalAlign=middle;whiteSpace=wrap;rounded=0;" vertex="1" parent="fBd8_eQ4kbWqu8nwlLp7-288">
          <mxGeometry x="10" width="20" height="30" as="geometry" />
        </mxCell>
        <mxCell id="fBd8_eQ4kbWqu8nwlLp7-343" value="O" style="ellipse;whiteSpace=wrap;html=1;aspect=fixed;hachureGap=4;fillColor=#d5e8d4;strokeColor=#82b366;" vertex="1" parent="1">
          <mxGeometry x="1265" y="245" width="40" height="40" as="geometry" />
        </mxCell>
        <mxCell id="fBd8_eQ4kbWqu8nwlLp7-344" value="&lt;font style=&quot;font-size: 18px;&quot;&gt;Text ...&lt;/font&gt;" style="text;html=1;align=left;verticalAlign=middle;whiteSpace=wrap;rounded=0;" vertex="1" parent="1">
          <mxGeometry x="1169" y="185" width="190" height="30" as="geometry" />
        </mxCell>
        <mxCell id="fBd8_eQ4kbWqu8nwlLp7-397" value="&lt;font style=&quot;font-size: 18px;&quot;&gt;Next Word Prediction and &lt;br&gt;Word Completion&amp;nbsp;&lt;/font&gt;" style="text;html=1;align=left;verticalAlign=middle;whiteSpace=wrap;rounded=0;" vertex="1" parent="1">
          <mxGeometry x="1160" y="310" width="230" height="45" as="geometry" />
        </mxCell>
      </root>
    </mxGraphModel>
  </diagram>
</mxfile>
